<mxfile host="app.diagrams.net" modified="2024-05-07T08:21:41.174Z" agent="Mozilla/5.0 (Macintosh; Intel Mac OS X 10_15_7) AppleWebKit/537.36 (KHTML, like Gecko) Chrome/124.0.0.0 Safari/537.36" etag="w8woPOwFBM0VXOBiZX6p" version="24.3.1" type="github">
  <diagram name="Страница — 1" id="pi8P1MIW0seDxqevZfrj">
    <mxGraphModel dx="1342" dy="687" grid="1" gridSize="10" guides="1" tooltips="1" connect="1" arrows="1" fold="1" page="1" pageScale="1" pageWidth="4681" pageHeight="3300" math="0" shadow="0">
      <root>
        <mxCell id="0" />
        <mxCell id="1" parent="0" />
        <mxCell id="olagAXbS5P1v5Jv9xC0R-1" value="Interact" style="swimlane;fontStyle=0;childLayout=stackLayout;horizontal=1;startSize=30;horizontalStack=0;resizeParent=1;resizeParentMax=0;resizeLast=0;collapsible=1;marginBottom=0;whiteSpace=wrap;html=1;" vertex="1" parent="1">
          <mxGeometry x="1870" y="200" width="210" height="150" as="geometry" />
        </mxCell>
        <mxCell id="olagAXbS5P1v5Jv9xC0R-2" value="Settings" style="text;strokeColor=none;fillColor=none;align=left;verticalAlign=middle;spacingLeft=4;spacingRight=4;overflow=hidden;points=[[0,0.5],[1,0.5]];portConstraint=eastwest;rotatable=0;whiteSpace=wrap;html=1;" vertex="1" parent="olagAXbS5P1v5Jv9xC0R-1">
          <mxGeometry y="30" width="210" height="30" as="geometry" />
        </mxCell>
        <mxCell id="olagAXbS5P1v5Jv9xC0R-4" value="IEmployeeController" style="text;strokeColor=none;fillColor=none;align=left;verticalAlign=middle;spacingLeft=4;spacingRight=4;overflow=hidden;points=[[0,0.5],[1,0.5]];portConstraint=eastwest;rotatable=0;whiteSpace=wrap;html=1;" vertex="1" parent="olagAXbS5P1v5Jv9xC0R-1">
          <mxGeometry y="60" width="210" height="30" as="geometry" />
        </mxCell>
        <mxCell id="olagAXbS5P1v5Jv9xC0R-10" value="IGridController" style="text;strokeColor=none;fillColor=none;align=left;verticalAlign=middle;spacingLeft=4;spacingRight=4;overflow=hidden;points=[[0,0.5],[1,0.5]];portConstraint=eastwest;rotatable=0;whiteSpace=wrap;html=1;" vertex="1" parent="olagAXbS5P1v5Jv9xC0R-1">
          <mxGeometry y="90" width="210" height="30" as="geometry" />
        </mxCell>
        <mxCell id="olagAXbS5P1v5Jv9xC0R-49" value="ILoaderFactory" style="text;strokeColor=none;fillColor=none;align=left;verticalAlign=middle;spacingLeft=4;spacingRight=4;overflow=hidden;points=[[0,0.5],[1,0.5]];portConstraint=eastwest;rotatable=0;whiteSpace=wrap;html=1;" vertex="1" parent="olagAXbS5P1v5Jv9xC0R-1">
          <mxGeometry y="120" width="210" height="30" as="geometry" />
        </mxCell>
        <mxCell id="olagAXbS5P1v5Jv9xC0R-33" style="edgeStyle=orthogonalEdgeStyle;rounded=0;orthogonalLoop=1;jettySize=auto;html=1;entryX=0;entryY=0.5;entryDx=0;entryDy=0;" edge="1" parent="1" source="olagAXbS5P1v5Jv9xC0R-5" target="olagAXbS5P1v5Jv9xC0R-12">
          <mxGeometry relative="1" as="geometry" />
        </mxCell>
        <mxCell id="olagAXbS5P1v5Jv9xC0R-35" style="edgeStyle=orthogonalEdgeStyle;rounded=0;orthogonalLoop=1;jettySize=auto;html=1;entryX=0;entryY=0.5;entryDx=0;entryDy=0;" edge="1" parent="1" source="olagAXbS5P1v5Jv9xC0R-5" target="olagAXbS5P1v5Jv9xC0R-17">
          <mxGeometry relative="1" as="geometry" />
        </mxCell>
        <mxCell id="olagAXbS5P1v5Jv9xC0R-5" value="&lt;span style=&quot;text-align: left;&quot;&gt;VacationFileHandlerInterface&lt;/span&gt;" style="swimlane;fontStyle=0;childLayout=stackLayout;horizontal=1;startSize=30;horizontalStack=0;resizeParent=1;resizeParentMax=0;resizeLast=0;collapsible=1;marginBottom=0;whiteSpace=wrap;html=1;" vertex="1" parent="1">
          <mxGeometry x="280" y="280" width="180" height="60" as="geometry" />
        </mxCell>
        <mxCell id="olagAXbS5P1v5Jv9xC0R-6" value="dataframe" style="text;strokeColor=none;fillColor=none;align=left;verticalAlign=middle;spacingLeft=4;spacingRight=4;overflow=hidden;points=[[0,0.5],[1,0.5]];portConstraint=eastwest;rotatable=0;whiteSpace=wrap;html=1;" vertex="1" parent="olagAXbS5P1v5Jv9xC0R-5">
          <mxGeometry y="30" width="180" height="30" as="geometry" />
        </mxCell>
        <mxCell id="olagAXbS5P1v5Jv9xC0R-40" style="edgeStyle=orthogonalEdgeStyle;rounded=0;orthogonalLoop=1;jettySize=auto;html=1;entryX=0;entryY=0.5;entryDx=0;entryDy=0;" edge="1" parent="1" source="olagAXbS5P1v5Jv9xC0R-11" target="olagAXbS5P1v5Jv9xC0R-39">
          <mxGeometry relative="1" as="geometry" />
        </mxCell>
        <mxCell id="olagAXbS5P1v5Jv9xC0R-11" value="&lt;span style=&quot;text-align: left;&quot;&gt;EmployeeBuilderInterface&lt;/span&gt;" style="swimlane;fontStyle=0;childLayout=stackLayout;horizontal=1;startSize=30;horizontalStack=0;resizeParent=1;resizeParentMax=0;resizeLast=0;collapsible=1;marginBottom=0;whiteSpace=wrap;html=1;" vertex="1" parent="1">
          <mxGeometry x="560" y="200" width="180" height="60" as="geometry" />
        </mxCell>
        <mxCell id="olagAXbS5P1v5Jv9xC0R-12" value="dataframe" style="text;strokeColor=none;fillColor=none;align=left;verticalAlign=middle;spacingLeft=4;spacingRight=4;overflow=hidden;points=[[0,0.5],[1,0.5]];portConstraint=eastwest;rotatable=0;whiteSpace=wrap;html=1;" vertex="1" parent="olagAXbS5P1v5Jv9xC0R-11">
          <mxGeometry y="30" width="180" height="30" as="geometry" />
        </mxCell>
        <mxCell id="olagAXbS5P1v5Jv9xC0R-34" style="edgeStyle=orthogonalEdgeStyle;rounded=0;orthogonalLoop=1;jettySize=auto;html=1;entryX=0.5;entryY=0;entryDx=0;entryDy=0;" edge="1" parent="1" source="olagAXbS5P1v5Jv9xC0R-13" target="olagAXbS5P1v5Jv9xC0R-11">
          <mxGeometry relative="1" as="geometry" />
        </mxCell>
        <mxCell id="olagAXbS5P1v5Jv9xC0R-13" value="&lt;span style=&quot;text-align: left;&quot;&gt;VacationBuilderInterface&lt;/span&gt;" style="swimlane;fontStyle=0;childLayout=stackLayout;horizontal=1;startSize=30;horizontalStack=0;resizeParent=1;resizeParentMax=0;resizeLast=0;collapsible=1;marginBottom=0;whiteSpace=wrap;html=1;" vertex="1" parent="1">
          <mxGeometry x="320" y="120" width="180" height="60" as="geometry" />
        </mxCell>
        <mxCell id="olagAXbS5P1v5Jv9xC0R-14" value="df_vacation" style="text;strokeColor=none;fillColor=none;align=left;verticalAlign=middle;spacingLeft=4;spacingRight=4;overflow=hidden;points=[[0,0.5],[1,0.5]];portConstraint=eastwest;rotatable=0;whiteSpace=wrap;html=1;" vertex="1" parent="olagAXbS5P1v5Jv9xC0R-13">
          <mxGeometry y="30" width="180" height="30" as="geometry" />
        </mxCell>
        <mxCell id="olagAXbS5P1v5Jv9xC0R-16" value="&lt;span style=&quot;text-align: left;&quot;&gt;VacationDayBuilderInterface&lt;/span&gt;" style="swimlane;fontStyle=0;childLayout=stackLayout;horizontal=1;startSize=30;horizontalStack=0;resizeParent=1;resizeParentMax=0;resizeLast=0;collapsible=1;marginBottom=0;whiteSpace=wrap;html=1;" vertex="1" parent="1">
          <mxGeometry x="830" y="320" width="180" height="120" as="geometry" />
        </mxCell>
        <mxCell id="olagAXbS5P1v5Jv9xC0R-17" value="df_vacation" style="text;strokeColor=none;fillColor=none;align=left;verticalAlign=middle;spacingLeft=4;spacingRight=4;overflow=hidden;points=[[0,0.5],[1,0.5]];portConstraint=eastwest;rotatable=0;whiteSpace=wrap;html=1;" vertex="1" parent="olagAXbS5P1v5Jv9xC0R-16">
          <mxGeometry y="30" width="180" height="30" as="geometry" />
        </mxCell>
        <mxCell id="olagAXbS5P1v5Jv9xC0R-45" value="employee" style="text;strokeColor=none;fillColor=none;align=left;verticalAlign=middle;spacingLeft=4;spacingRight=4;overflow=hidden;points=[[0,0.5],[1,0.5]];portConstraint=eastwest;rotatable=0;whiteSpace=wrap;html=1;" vertex="1" parent="olagAXbS5P1v5Jv9xC0R-16">
          <mxGeometry y="60" width="180" height="30" as="geometry" />
        </mxCell>
        <mxCell id="olagAXbS5P1v5Jv9xC0R-25" value="Settings" style="text;strokeColor=none;fillColor=none;align=left;verticalAlign=middle;spacingLeft=4;spacingRight=4;overflow=hidden;points=[[0,0.5],[1,0.5]];portConstraint=eastwest;rotatable=0;whiteSpace=wrap;html=1;" vertex="1" parent="olagAXbS5P1v5Jv9xC0R-16">
          <mxGeometry y="90" width="180" height="30" as="geometry" />
        </mxCell>
        <mxCell id="olagAXbS5P1v5Jv9xC0R-26" value="&lt;div style=&quot;text-align: left;&quot;&gt;&lt;span style=&quot;background-color: initial;&quot;&gt;FileValidation&lt;/span&gt;&lt;/div&gt;" style="swimlane;fontStyle=0;childLayout=stackLayout;horizontal=1;startSize=30;horizontalStack=0;resizeParent=1;resizeParentMax=0;resizeLast=0;collapsible=1;marginBottom=0;whiteSpace=wrap;html=1;" vertex="1" parent="1">
          <mxGeometry x="40" y="280" width="180" height="60" as="geometry" />
        </mxCell>
        <mxCell id="olagAXbS5P1v5Jv9xC0R-27" value="dataframe" style="text;strokeColor=none;fillColor=none;align=left;verticalAlign=middle;spacingLeft=4;spacingRight=4;overflow=hidden;points=[[0,0.5],[1,0.5]];portConstraint=eastwest;rotatable=0;whiteSpace=wrap;html=1;" vertex="1" parent="olagAXbS5P1v5Jv9xC0R-26">
          <mxGeometry y="30" width="180" height="30" as="geometry" />
        </mxCell>
        <mxCell id="olagAXbS5P1v5Jv9xC0R-32" style="edgeStyle=orthogonalEdgeStyle;rounded=0;orthogonalLoop=1;jettySize=auto;html=1;entryX=0;entryY=0.5;entryDx=0;entryDy=0;" edge="1" parent="1" source="olagAXbS5P1v5Jv9xC0R-27" target="olagAXbS5P1v5Jv9xC0R-6">
          <mxGeometry relative="1" as="geometry" />
        </mxCell>
        <mxCell id="olagAXbS5P1v5Jv9xC0R-37" style="edgeStyle=orthogonalEdgeStyle;rounded=0;orthogonalLoop=1;jettySize=auto;html=1;entryX=0.5;entryY=0;entryDx=0;entryDy=0;" edge="1" parent="1" source="olagAXbS5P1v5Jv9xC0R-12" target="olagAXbS5P1v5Jv9xC0R-16">
          <mxGeometry relative="1" as="geometry" />
        </mxCell>
        <mxCell id="olagAXbS5P1v5Jv9xC0R-48" style="edgeStyle=orthogonalEdgeStyle;rounded=0;orthogonalLoop=1;jettySize=auto;html=1;entryX=0;entryY=0.5;entryDx=0;entryDy=0;" edge="1" parent="1" source="olagAXbS5P1v5Jv9xC0R-38" target="olagAXbS5P1v5Jv9xC0R-4">
          <mxGeometry relative="1" as="geometry" />
        </mxCell>
        <mxCell id="olagAXbS5P1v5Jv9xC0R-38" value="&lt;span style=&quot;text-align: left;&quot;&gt;IEmployeeController (Singleton)&lt;/span&gt;" style="swimlane;fontStyle=0;childLayout=stackLayout;horizontal=1;startSize=30;horizontalStack=0;resizeParent=1;resizeParentMax=0;resizeLast=0;collapsible=1;marginBottom=0;whiteSpace=wrap;html=1;" vertex="1" parent="1">
          <mxGeometry x="1120" y="80" width="180" height="60" as="geometry" />
        </mxCell>
        <mxCell id="olagAXbS5P1v5Jv9xC0R-39" value="dataframe" style="text;strokeColor=none;fillColor=none;align=left;verticalAlign=middle;spacingLeft=4;spacingRight=4;overflow=hidden;points=[[0,0.5],[1,0.5]];portConstraint=eastwest;rotatable=0;whiteSpace=wrap;html=1;" vertex="1" parent="olagAXbS5P1v5Jv9xC0R-38">
          <mxGeometry y="30" width="180" height="30" as="geometry" />
        </mxCell>
        <mxCell id="olagAXbS5P1v5Jv9xC0R-59" style="edgeStyle=orthogonalEdgeStyle;rounded=0;orthogonalLoop=1;jettySize=auto;html=1;entryX=0;entryY=0.5;entryDx=0;entryDy=0;" edge="1" parent="1" source="olagAXbS5P1v5Jv9xC0R-41" target="olagAXbS5P1v5Jv9xC0R-57">
          <mxGeometry relative="1" as="geometry" />
        </mxCell>
        <mxCell id="olagAXbS5P1v5Jv9xC0R-41" value="&lt;span style=&quot;text-align: left;&quot;&gt;IGridController (Singleton)&lt;/span&gt;" style="swimlane;fontStyle=0;childLayout=stackLayout;horizontal=1;startSize=30;horizontalStack=0;resizeParent=1;resizeParentMax=0;resizeLast=0;collapsible=1;marginBottom=0;whiteSpace=wrap;html=1;" vertex="1" parent="1">
          <mxGeometry x="1120" y="350" width="180" height="60" as="geometry" />
        </mxCell>
        <mxCell id="olagAXbS5P1v5Jv9xC0R-42" value="VacationDayDict" style="text;strokeColor=none;fillColor=none;align=left;verticalAlign=middle;spacingLeft=4;spacingRight=4;overflow=hidden;points=[[0,0.5],[1,0.5]];portConstraint=eastwest;rotatable=0;whiteSpace=wrap;html=1;" vertex="1" parent="olagAXbS5P1v5Jv9xC0R-41">
          <mxGeometry y="30" width="180" height="30" as="geometry" />
        </mxCell>
        <mxCell id="olagAXbS5P1v5Jv9xC0R-46" style="edgeStyle=orthogonalEdgeStyle;rounded=0;orthogonalLoop=1;jettySize=auto;html=1;entryX=0;entryY=0.5;entryDx=0;entryDy=0;" edge="1" parent="1" source="olagAXbS5P1v5Jv9xC0R-45" target="olagAXbS5P1v5Jv9xC0R-42">
          <mxGeometry relative="1" as="geometry">
            <mxPoint x="1120" y="395" as="targetPoint" />
          </mxGeometry>
        </mxCell>
        <mxCell id="olagAXbS5P1v5Jv9xC0R-47" style="edgeStyle=orthogonalEdgeStyle;rounded=0;orthogonalLoop=1;jettySize=auto;html=1;entryX=0;entryY=0.5;entryDx=0;entryDy=0;" edge="1" parent="1" source="olagAXbS5P1v5Jv9xC0R-42" target="olagAXbS5P1v5Jv9xC0R-10">
          <mxGeometry relative="1" as="geometry" />
        </mxCell>
        <mxCell id="olagAXbS5P1v5Jv9xC0R-60" style="edgeStyle=orthogonalEdgeStyle;rounded=0;orthogonalLoop=1;jettySize=auto;html=1;entryX=0;entryY=0.5;entryDx=0;entryDy=0;" edge="1" parent="1" source="olagAXbS5P1v5Jv9xC0R-56" target="olagAXbS5P1v5Jv9xC0R-65">
          <mxGeometry relative="1" as="geometry">
            <mxPoint x="1590" y="565" as="targetPoint" />
          </mxGeometry>
        </mxCell>
        <mxCell id="olagAXbS5P1v5Jv9xC0R-56" value="&lt;pre style=&quot;background-color:#2b2b2b;color:#a9b7c6;font-family:&#39;JetBrains Mono&#39;,monospace;font-size:9,8pt;&quot;&gt;ILoader&lt;/pre&gt;" style="swimlane;fontStyle=0;childLayout=stackLayout;horizontal=1;startSize=30;horizontalStack=0;resizeParent=1;resizeParentMax=0;resizeLast=0;collapsible=1;marginBottom=0;whiteSpace=wrap;html=1;" vertex="1" parent="1">
          <mxGeometry x="1280" y="520" width="180" height="90" as="geometry" />
        </mxCell>
        <mxCell id="olagAXbS5P1v5Jv9xC0R-57" value="IGridController" style="text;strokeColor=none;fillColor=none;align=left;verticalAlign=middle;spacingLeft=4;spacingRight=4;overflow=hidden;points=[[0,0.5],[1,0.5]];portConstraint=eastwest;rotatable=0;whiteSpace=wrap;html=1;" vertex="1" parent="olagAXbS5P1v5Jv9xC0R-56">
          <mxGeometry y="30" width="180" height="30" as="geometry" />
        </mxCell>
        <mxCell id="olagAXbS5P1v5Jv9xC0R-58" value="Settings" style="text;strokeColor=none;fillColor=none;align=left;verticalAlign=middle;spacingLeft=4;spacingRight=4;overflow=hidden;points=[[0,0.5],[1,0.5]];portConstraint=eastwest;rotatable=0;whiteSpace=wrap;html=1;" vertex="1" parent="olagAXbS5P1v5Jv9xC0R-56">
          <mxGeometry y="60" width="180" height="30" as="geometry" />
        </mxCell>
        <mxCell id="olagAXbS5P1v5Jv9xC0R-68" style="edgeStyle=orthogonalEdgeStyle;rounded=0;orthogonalLoop=1;jettySize=auto;html=1;entryX=0;entryY=0.5;entryDx=0;entryDy=0;" edge="1" parent="1" source="olagAXbS5P1v5Jv9xC0R-64" target="olagAXbS5P1v5Jv9xC0R-49">
          <mxGeometry relative="1" as="geometry" />
        </mxCell>
        <mxCell id="olagAXbS5P1v5Jv9xC0R-64" value="&lt;pre style=&quot;background-color:#2b2b2b;color:#a9b7c6;font-family:&#39;JetBrains Mono&#39;,monospace;font-size:9,8pt;&quot;&gt;ILoaderFactory (Singleton)&lt;/pre&gt;" style="swimlane;fontStyle=0;childLayout=stackLayout;horizontal=1;startSize=30;horizontalStack=0;resizeParent=1;resizeParentMax=0;resizeLast=0;collapsible=1;marginBottom=0;whiteSpace=wrap;html=1;" vertex="1" parent="1">
          <mxGeometry x="1630" y="520" width="210" height="60" as="geometry" />
        </mxCell>
        <mxCell id="olagAXbS5P1v5Jv9xC0R-65" value="factories" style="text;strokeColor=none;fillColor=none;align=left;verticalAlign=middle;spacingLeft=4;spacingRight=4;overflow=hidden;points=[[0,0.5],[1,0.5]];portConstraint=eastwest;rotatable=0;whiteSpace=wrap;html=1;" vertex="1" parent="olagAXbS5P1v5Jv9xC0R-64">
          <mxGeometry y="30" width="210" height="30" as="geometry" />
        </mxCell>
      </root>
    </mxGraphModel>
  </diagram>
</mxfile>
